<svg height="512pt" viewBox="0 -19 512 511" width="512pt" xmlns="http://www.w3.org/2000/svg"><path d="m487.140625 131.457031 2.878906-2.878906c29.261719-29.261719 29.261719-76.871094 0-106.132813-29.261719-29.261718-76.875-29.261718-106.132812 0l-3.121094 3.121094c-32.15625-15.957031-67.800781-24.402344-104.75-24.402344h-40.03125c-36.949219 0-72.59375 8.445313-104.75 24.402344l-3.121094-3.121094c-29.257812-29.261718-76.871093-29.261718-106.132812 0-29.261719 29.261719-29.261719 76.871094 0 106.132813l2.878906 2.878906c-16.257813 32.402344-24.859375 68.382813-24.859375 105.691407 0 63.03125 24.546875 122.292968 69.117188 166.863281 44.570312 44.574219 103.832031 69.121093 166.867187 69.121093h40.03125c63.035156 0 122.292969-24.546874 166.867187-69.121093 44.570313-44.570313 69.117188-103.832031 69.117188-166.867188 0-37.304687-8.601562-73.285156-24.859375-105.6875zm-18.335937-87.796875c16.675781 16.675782 17.507812 43.269532 2.523437 60.949219-8.300781-12.179687-17.796875-23.679687-28.445313-34.328125-10.898437-10.898438-22.675781-20.585938-35.167968-29.023438 17.679687-15.109374 44.371094-14.316406 61.089844 2.402344zm-425.609376 0c16.714844-16.71875 43.410157-17.511718 61.089844-2.402344-12.492187 8.4375-24.269531 18.125-35.167968 29.023438-10.648438 10.648438-20.144532 22.148438-28.445313 34.328125-14.984375-17.679687-14.152344-44.277344 2.523437-60.949219zm137.78125 324.445313v-57.042969c0-41.371094 33.65625-75.023438 75.023438-75.023438s75.023438 33.652344 75.023438 75.023438v57.042969c0 5.144531-.519532 10.167969-1.511719 15.027343h-58.511719v-29.625c17.472656-6.195312 30.023438-22.878906 30.023438-42.445312 0-24.828125-20.199219-45.023438-45.023438-45.023438s-45.023438 20.195313-45.023438 45.023438c0 19.566406 12.550782 36.25 30.023438 42.445312v29.625h-58.511719c-.992187-4.859374-1.511719-9.882812-1.511719-15.027343zm75.023438-42.019531c-8.285156 0-15.023438-6.742188-15.023438-15.023438 0-8.285156 6.738282-15.023438 15.023438-15.023438s15.023438 6.738282 15.023438 15.023438c0 8.28125-6.738282 15.023438-15.023438 15.023438zm59.972656 87.042968c-13.703125 18.207032-35.484375 30-59.972656 30s-46.269531-11.792968-59.972656-30zm22.085938 20.445313c14.363281-17.964844 22.964844-40.730469 22.964844-65.46875v-57.046875c0-57.910156-47.113282-105.023438-105.023438-105.023438s-105.023438 47.113282-105.023438 105.023438v57.046875c0 24.738281 8.601563 47.503906 22.96875 65.46875-83.355468-26.382813-143.945312-104.460938-143.945312-196.429688 0-113.578125 92.402344-205.980469 205.984375-205.980469h40.03125c113.582031 0 205.984375 92.402344 205.984375 205.984376 0 91.964843-60.589844 170.042968-143.941406 196.425781zm0 0"/><path d="m139.328125 175.535156h30.023437v30h-30.023437zm0 0"/><path d="m342.648438 175.535156h30.023437v30h-30.023437zm0 0"/></svg>