<svg id="Capa_1" enable-background="new 0 0 512 512" height="512" viewBox="0 0 512 512" width="512" xmlns="http://www.w3.org/2000/svg"><g><circle cx="346" cy="226" r="10"/><circle cx="166" cy="226" r="10"/><path d="m427 0c-35.672 0-65.685 21.782-78.479 52.359-28.364-2.706-55.708 3.136-74.36 7.125-7.871 1.684-14.692 3.142-18.62 3.321-4.647-.16-12.226-1.74-20.975-3.563-19.02-3.965-44.431-9.261-71.19-7.114-12.985-30.782-43.143-52.128-78.376-52.128-46.869 0-85 38.131-85 85 0 32.863 19.155 62.738 48.402 76.716-23.759 66.782-37.316 164.683-1.032 234.504 19.507 37.539 50.823 62.393 93.12 73.927 12.525 19.907 36.401 41.853 80.78 41.853h69.46c44.685 0 68.567-22.283 81.028-42.466 30.655-8.754 55.619-24.841 74.218-47.901 3.467-4.299 2.793-10.595-1.506-14.063-4.298-3.466-10.594-2.791-14.062 1.506-12.468 15.458-28.365 27.302-47.423 35.371 12.925-41.855 5.962-97.107-19.279-140.179-22.018-37.575-53.262-58.268-87.976-58.268h-39.46c-34.938 0-66.332 20.906-88.398 58.868-25.182 43.321-31.932 98.67-18.738 140.395-28.366-11.471-49.85-31.001-64.018-58.266-50.303-96.798 4.449-260.976 45.81-294.37 34.421-27.814 76.663-22.748 119.559-13.807 10.295 2.146 18.426 3.841 24.879 3.986.181.005.361.003.541-.002 5.676-.179 13.073-1.761 22.438-3.764 42.894-9.173 85.862-14.316 120.431 13.557 32.738 26.459 77.56 141.297 63.14 238.506-.811 5.464 2.961 10.549 8.424 11.359 5.458.813 10.549-2.962 11.359-8.424 7.578-51.082.059-114.44-20.102-171.401 29.631-13.274 50.405-42.808 50.405-77.637 0-46.869-38.131-85-85-85zm-261.837 314.919c10.62-18.27 33.98-48.919 71.107-48.919h39.46c36.866 0 60.133 30.311 70.721 48.379 37.911 64.695 34.915 177.621-55.721 177.621h-69.46c-85.072 0-98.667-103.863-56.107-177.081zm-66.805-237.851c-14.812 11.959-29.812 35.172-42.717 65.937-21.592-10.953-35.641-33.387-35.641-58.005 0-35.841 29.159-65 65-65 24.853 0 46.919 13.831 57.87 35.344-16.655 4.004-31.587 11.28-44.512 21.724zm356.061 66.862c-12.866-30.878-28.325-54.968-43.082-66.894-12.376-9.979-26.632-17.063-42.494-21.154 10.85-21.83 33.058-35.882 58.157-35.882 35.841 0 65 29.159 65 65 0 25.324-15.076 48.393-37.581 58.93z"/><path d="m246 369.734v32.123l-27.071 27.071c-3.905 3.905-3.905 10.237 0 14.143 3.905 3.904 10.237 3.904 14.143 0l22.928-22.928 22.929 22.929c3.906 3.905 10.237 3.905 14.143 0 3.905-3.905 3.905-10.237 0-14.143l-27.072-27.072v-32.123c17.233-4.452 30-20.13 30-38.734 0-13.834-15.327-22.428-40-22.428s-40 8.594-40 22.428c0 18.604 12.767 34.282 30 38.734zm10-41.162c10.552 0 17.614 2.236 19.955 3.778-.697 10.401-9.381 18.65-19.955 18.65s-19.258-8.249-19.955-18.649c2.341-1.542 9.403-3.779 19.955-3.779z"/><circle cx="460" cy="376" r="10"/></g></svg>